<?xml version="1.0" encoding="utf-8"?>
<!-- Generator: Adobe Illustrator 25.2.3, SVG Export Plug-In . SVG Version: 6.00 Build 0)  -->
<svg version="1.1" id="Layer_1" xmlns="http://www.w3.org/2000/svg" xmlns:xlink="http://www.w3.org/1999/xlink" x="0px" y="0px"
	 viewBox="0 0 163 55" style="enable-background:new 0 0 163 55;" xml:space="preserve">
<style type="text/css">
	.st0{fill:#FF8046;}
	.st1{fill:#2B333B;}
</style>
<g>
	<g>
		<g id="logo">
			<g id="Group_349" transform="translate(-40.989 -38.997)">
				<g id="Group_3" transform="translate(40.989 42.327)">
					<path id="Path_1" class="st0" d="M8.4,0.2L0,8.5v32.8l8.4,7h9.7V0.2H8.4z M13.8,35.8l-1.9,1.8H6.4l-1.9-1.8V29l1.9-1.8h5.5
						l1.9,1.8L13.8,35.8z M13.8,20.1l-1.9,1.8H6.4l-1.9-1.8v-6.8l1.9-1.8h5.5l1.9,1.8L13.8,20.1z"/>
					<path id="Path_2" class="st0" d="M16.9,48.3h27.4l8.8-8.8V8.8L44.2,0H21.5v18.2h22.3l2.8-2.8l-8.1-8.1h-9v3.9h7.2l3.3,3.1H25.5
						V3.9h17.1l6.6,6.5v11.1H21.5v3.9h6.8l-9.2,9h5.6l9.1-9h5.7L16.9,48.3z M45.1,25.5h4.1v7.4h-5.8L31.9,44.4h-5.8L45.1,25.5z
						 M42.6,44.4h-5.2l7.6-7.6h4.2v1.1L42.6,44.4z"/>
				</g>
				<g id="Group_4" transform="translate(105.257 45.125)">
					<path id="Path_3" class="st1" d="M69.9,8.7h-2.6c-0.7,0.1-1.4-0.2-1.9-0.6c-0.3-0.4-0.5-0.8-0.5-1.3V6.1l6.9-3l-0.7-1.6
						l-6.2,2.7V0.3h-1.8v6.5c0,0.9,0.3,1.8,1,2.5c0.9,0.8,2,1.2,3.2,1.2h2.6c1.9,0,3.4-1.5,3.3-3.4V7h-1.8
						C71.5,7.9,70.9,8.6,69.9,8.7C70,8.7,70,8.7,69.9,8.7z"/>
					<path id="Path_4" class="st1" d="M38.6,9.7h9v1.8h-8.1l-1,1.5h8.9v6c0,0.9-0.4,1.8-1,2.5c-0.8,0.8-1.9,1.2-3.1,1.1h-1.1v-1.8
						h1.1c0.7,0.1,1.3-0.2,1.8-0.6c0.3-0.3,0.5-0.8,0.5-1.3v-4.2h-0.3l-5.6,7.8h-1.8l5.7-7.8h-2.1l-5.7,7.8H34l5.7-7.8h-2.2
						l-5.6,7.8h-2.2l7.9-11.1h-4.2V9.7H38.6L38.6,9.7z"/>
					<path id="Path_5" class="st1" d="M0,20.9l0.1,1.8C8.7,22.2,10.6,12.8,10.4,8V6.2H19V19c0,0.5-0.2,0.9-0.5,1.3
						c-0.5,0.4-1.1,0.7-1.8,0.6h-5.1v1.8h5.1c1.1,0.1,2.3-0.3,3.1-1.1c0.6-0.7,1-1.6,1-2.5V4.4H10.3V0.1H8.6v4.3H1.4v1.8h7.2V8
						C8.6,8.2,9,20.4,0,20.9z"/>
					<path id="Path_6" class="st1" d="M46.2,3.4h-8V5h6.2v1.6h-7.9V1.9h9.8V0.1H34.7v8.2h11.5V3.4z"/>
					<path id="Path_7" class="st1" d="M69.9,20.7h-2.6c-0.7,0.1-1.4-0.2-1.9-0.6c-0.3-0.4-0.5-0.8-0.5-1.3v-0.7l7.6-3.3l-0.7-1.6
						l-6.9,3v-4.7h-1.8v7.3c0,0.9,0.3,1.8,1,2.5c0.9,0.8,2,1.2,3.2,1.2h2.6c1.9,0,3.4-1.5,3.3-3.4V19h-1.8
						C71.5,19.9,70.9,20.6,69.9,20.7C70,20.7,70,20.7,69.9,20.7z"/>
					<path id="Path_8" class="st1" d="M61.4,7.5L62,6l-3-3l-1.2,1.3l1.4,1.4H54L57.3,1l-1.4-1l-4.3,6.1l0.7,1.4H61.4z"/>
					
						<rect id="Rectangle_3" x="83.7" y="16.4" transform="matrix(0.5832 -0.8123 0.8123 0.5832 21.9946 77.4142)" class="st1" width="5.4" height="1.8"/>
					
						<rect id="Rectangle_4" x="94.8" y="14.5" transform="matrix(0.8128 -0.5826 0.5826 0.8128 7.8978 58.9531)" class="st1" width="1.8" height="5.4"/>
					
						<rect id="Rectangle_5" x="77.8" y="0" transform="matrix(0.5795 -0.8149 0.8149 0.5795 31.3121 65.0204)" class="st1" width="1.8" height="4.4"/>
					
						<rect id="Rectangle_6" x="73.3" y="16.2" transform="matrix(0.3917 -0.9201 0.9201 0.3917 31.4852 81.8892)" class="st1" width="8.8" height="1.8"/>
					
						<rect id="Rectangle_7" x="76.9" y="6.2" transform="matrix(0.5832 -0.8123 0.8123 0.5832 25.8264 66.5651)" class="st1" width="1.8" height="3.9"/>
					<path id="Path_9" class="st1" d="M55,16.1v1.8h4.7v1c0,0.5-0.2,0.9-0.5,1.3c-0.5,0.4-1.2,0.7-1.9,0.6v1.8
						c1.2,0.1,2.3-0.3,3.2-1.2c0.6-0.7,1-1.6,1-2.5V8.7h-9.4v14.1h1.8V10.5h5.8v2H55v1.8h4.7v1.9L55,16.1z"/>
					<path id="Path_10" class="st1" d="M83.9,2.2h6.8l-1.6,2.3h-3.7v9h5V19c0,0.5-0.2,0.9-0.5,1.3c-0.5,0.4-1.1,0.6-1.8,0.6h-1.7
						v1.8h1.7c1.1,0.1,2.2-0.3,3.1-1.1c0.6-0.7,1-1.6,1-2.5v-5.4h4.2V8.1h-7.6v1.8h5.8v1.8h-7.4V6.3h9.2V4.5h-5.1L93,2.2h4.6V0.5
						H82.2v9c0,0.1,0.1,8.2-3.6,11.4l1.2,1.3C84.1,18.4,84,9.8,84,9.5L83.9,2.2z"/>
					<path id="Path_11" class="st1" d="M32,1.7h-6.4V18H32V1.7z M30.2,3.4v5.3h-2.9V3.4H30.2z M27.3,16.2v-5.7h2.9v5.7H27.3z"/>
					<path id="Path_12" class="st1" d="M4.8,33.9c-0.4,0.7-0.7,1.4-1,2l0,0c-0.3-0.7-0.6-1.3-1-2l-1.4-2.7H0l3.1,5.6V41h1.3v-4.2
						l3.3-5.6H6.2L4.8,33.9z"/>
					<path id="Path_13" class="st1" d="M11.3,36.9c-0.9-0.3-1.3-0.6-1.3-1.2c0-0.5,0.4-1,1.2-1c0.5,0,1,0.1,1.4,0.4l0.3-0.9
						c-0.5-0.3-1.1-0.4-1.7-0.4c-1.2-0.1-2.3,0.7-2.4,1.9c0,0.1,0,0.1,0,0.2c0,0.8,0.6,1.5,1.9,2c0.9,0.3,1.3,0.7,1.3,1.3
						s-0.4,1-1.4,1c-0.6,0-1.2-0.2-1.7-0.5l-0.3,1c0.6,0.3,1.3,0.5,2,0.5c1.7,0,2.6-0.9,2.6-2.1C13.1,38,12.5,37.4,11.3,36.9z"/>
					<path id="Path_14" class="st1" d="M18.8,33.8c-1.9,0-3.5,1.5-3.5,3.4c0,0.1,0,0.2,0,0.4c-0.2,1.8,1.2,3.4,3.1,3.6
						c0.1,0,0.2,0,0.3,0c1.9,0,3.5-1.5,3.5-3.4c0-0.1,0-0.2,0-0.4c0.2-1.8-1.2-3.4-3-3.6C19.1,33.8,18.9,33.8,18.8,33.8z M18.8,40.2
						c-1.2,0-2.1-1.2-2.1-2.7c0-1.3,0.7-2.7,2.2-2.7s2.1,1.5,2.1,2.7C20.9,39,20,40.2,18.8,40.2z"/>
					<rect id="Rectangle_8" x="24.9" y="30.7" class="st1" width="1.3" height="10.3"/>
					<path id="Path_15" class="st1" d="M34.3,36.7c0-1.4-0.5-2.9-2.7-2.9c-0.8,0-1.6,0.2-2.3,0.6l0.3,0.8c0.5-0.3,1.2-0.5,1.8-0.5
						c0.8-0.1,1.5,0.5,1.6,1.3c0,0.1,0,0.2,0,0.3v0.1c-2.7,0-4.2,0.9-4.2,2.6c0,1.1,0.9,2,2,2c0.1,0,0.1,0,0.2,0
						c0.8,0,1.6-0.4,2.1-1l0,0l0.1,0.9h1.2c-0.1-0.6-0.1-1.1-0.1-1.7L34.3,36.7z M33.1,38.6c0,0.1,0,0.3-0.1,0.4
						c-0.2,0.7-0.9,1.2-1.7,1.2c-0.6,0-1.2-0.4-1.2-1c0-0.1,0-0.1,0-0.2c0-1.4,1.6-1.6,3-1.6V38.6z"/>
					<path id="Path_16" class="st1" d="M38.6,35.3L38.6,35.3l-0.1-1.4h-1.1c0,0.7,0.1,1.4,0.1,2.2V41h1.3v-3.7c0-0.2,0-0.4,0.1-0.6
						c0.1-0.9,0.8-1.6,1.7-1.6c0.1,0,0.3,0,0.4,0v-1.2c-0.1,0-0.2,0-0.4,0C39.7,33.8,38.9,34.4,38.6,35.3z"/>
					<path id="Path_17" class="st1" d="M52.1,32.1c0.7,0,1.4,0.1,2,0.4l0.3-1C53.6,31.1,52.8,31,52,31c-2.7-0.1-5,1.9-5.1,4.6
						c0,0.2,0,0.4,0,0.5c-0.2,2.5,1.6,4.7,4.2,4.9c0.2,0,0.4,0,0.7,0c0.9,0,1.8-0.1,2.6-0.5l-0.3-1c-0.7,0.3-1.4,0.4-2.1,0.4
						c-2.4,0-3.8-1.5-3.8-3.9C48.3,33.6,49.8,32.1,52.1,32.1z"/>
					<path id="Path_18" class="st1" d="M59.8,33.8c-1.9,0-3.5,1.5-3.5,3.4c0,0.1,0,0.2,0,0.4c-0.2,1.8,1.2,3.4,3.1,3.6
						c0.1,0,0.2,0,0.3,0c1.9,0,3.5-1.5,3.5-3.4c0-0.1,0-0.2,0-0.4c0.2-1.8-1.2-3.4-3-3.6C60,33.8,59.9,33.8,59.8,33.8z M59.7,40.2
						c-1.2,0-2.1-1.2-2.1-2.7c0-1.3,0.7-2.7,2.2-2.7s2.1,1.5,2.1,2.7C61.8,39,60.9,40.2,59.7,40.2L59.7,40.2z"/>
					<path id="Path_19" class="st1" d="M66,39.3c-0.5,0-0.9,0.5-0.9,1s0.4,0.8,0.8,0.9c0.5,0,0.9-0.5,0.9-1
						C66.9,39.7,66.5,39.3,66,39.3L66,39.3z"/>
					<path id="Path_20" class="st1" d="M68.7,42.7l0.9-0.1c0.6-1.1,1-2.3,1.4-3.5l-1.4,0.1C69.4,40.5,69.1,41.6,68.7,42.7z"/>
					<path id="Path_21" class="st1" d="M79.1,31.2h-1.3V41h5.4v-1.1H79L79.1,31.2z"/>
					<path id="Path_22" class="st1" d="M87.2,31.9L86,32.3V34h-1.1v1H86v3.8c-0.1,0.6,0.1,1.3,0.5,1.8c0.4,0.4,0.9,0.6,1.4,0.5
						c0.4,0,0.8,0,1.1-0.2l-0.1-1C88.7,40,88.4,40,88.2,40c-0.7,0-1-0.5-1-1.4v-3.8H89v-1h-1.8V31.9z"/>
					<path id="Path_23" class="st1" d="M97.5,30.7h-1.3v4.2l0,0c-0.5-0.7-1.3-1.1-2.1-1.1c-1.7,0-3.2,1.4-3.1,3.8
						c0,2.1,1.3,3.6,3,3.6c1,0,1.9-0.5,2.4-1.4l0,0l0.1,1.2h1.1c0-0.5-0.1-1.2-0.1-1.8V30.7z M96.2,38c0,0.2,0,0.4-0.1,0.6
						c-0.2,0.9-1,1.5-1.9,1.5c-1.4,0-2.1-1.2-2.1-2.6c0-1.5,0.8-2.7,2.1-2.7c0.9,0,1.7,0.6,1.8,1.5c0,0.2,0.1,0.4,0.1,0.5L96.2,38z"
						/>
				</g>
			</g>
		</g>
	</g>
</g>
</svg>
