<?xml version="1.0" encoding="utf-8"?>
<!-- Modified by YuShan Huang -->
<!-- 2022/04/15 -->
<!-- Generator: Adobe Illustrator 25.2.3, SVG Export Plug-In . SVG Version: 6.00 Build 0)  -->
<svg version="1.1" id="Layer_1" xmlns="http://www.w3.org/2000/svg" xmlns:xlink="http://www.w3.org/1999/xlink" x="0px" y="0px"
	 viewBox="0 0 150 150" style="enable-background:new 0 0 150 150;" xml:space="preserve">
<style type="text/css">
	.st1{fill:#ffffff;}
</style>
<g>
	<g>
		<g>
			<g>
                <path class="st1" d="M 133.88 61.08 c 0 -5.08 -4.12 -9.24 -9.24 -9.24 c -0.64 0 -1.28 0.08 -1.88 0.2 C 121.8 44.04 114.96 37.84 106.68 37.84 c -8.96 0 -16.24 7.28 -16.24 16.24 c 0 8.96 7.28 16.24 16.24 16.24 l 19.64 -0.16 C 130.6 69.4 133.88 65.64 133.88 61.08 z"/>
				<path class="st1" d="M122.2,102.7c0-12.7-10.3-23.1-23.1-23.1c-1.6,0-3.2,0.2-4.7,0.5C92,60.1,74.9,44.6,54.2,44.6
					c-22.4,0-40.6,18.2-40.6,40.6c0,22.4,18.2,40.6,40.6,40.6l49.1-0.4C114,123.5,122.2,114.1,122.2,102.7z"/>
			</g>
		</g>
	</g>
</g>
</svg>
